<svg width="58" height="80" viewBox="0 0 58 80" fill="none" xmlns="http://www.w3.org/2000/svg">
<path d="M48.3702 6.49371H44.4754C43.0712 6.49371 41.9331 7.63192 41.9331 9.03596V23.1933C41.9331 24.5974 43.0712 25.7356 44.4754 25.7356H48.3702C49.7744 25.7356 50.9124 24.5974 50.9124 23.1933V9.03596C50.9124 7.63192 49.7744 6.49371 48.3702 6.49371Z" fill="#5463FF"/>
<path d="M33.8064 78.716V65.3039H50.3163L35.9964 79.6243C35.8169 79.8039 35.5882 79.926 35.3392 79.9754C35.0903 80.0248 34.8322 79.9995 34.5978 79.9023C34.3633 79.805 34.1629 79.6402 34.0221 79.429C33.8812 79.2182 33.8061 78.9699 33.8064 78.716Z" fill="#5463FF"/>
<path d="M51.2009 64.4706H33.8064V66.0782H49.5098L51.2009 64.4706Z" fill="#324293"/>
<path d="M54.7769 24.7601L31.0174 0.998321C30.3748 0.358938 29.5052 0 28.5987 0C27.6922 0 26.8226 0.358938 26.1801 0.998321L2.42087 24.7601C0.971013 26.3726 0.116716 28.4328 0 30.5981V34.7836C12.9805 44.4411 28.7345 49.6447 44.9134 49.6188C49.028 49.6195 53.1359 49.2851 57.1963 48.6188V30.5981C57.0783 28.4334 56.2249 26.3737 54.7769 24.7601Z" fill="#5463FF"/>
<path d="M44.9142 53.4672C28.7353 53.4928 12.9813 48.2892 0.000732422 38.632V61.2413C0.0036685 62.1478 0.364987 63.0159 1.00582 63.6566C1.64664 64.2977 2.51494 64.6588 3.4212 64.6618H53.7769C54.683 64.6588 55.5512 64.2973 56.1923 63.6566C56.8329 63.0156 57.1941 62.1474 57.197 61.2413V52.4672C53.1367 53.1335 49.0287 53.468 44.9142 53.4672Z" fill="#5463FF"/>
</svg>
