<svg width="261" height="80" viewBox="0 0 261 80" fill="none" xmlns="http://www.w3.org/2000/svg">
<path d="M48.3702 6.49371H44.4754C43.0712 6.49371 41.9331 7.63192 41.9331 9.03596V23.1933C41.9331 24.5974 43.0712 25.7356 44.4754 25.7356H48.3702C49.7744 25.7356 50.9124 24.5974 50.9124 23.1933V9.03596C50.9124 7.63192 49.7744 6.49371 48.3702 6.49371Z" fill="#5463FF"/>
<path d="M33.8064 78.716V65.3039H50.3163L35.9964 79.6243C35.8169 79.8039 35.5882 79.926 35.3392 79.9754C35.0903 80.0248 34.8322 79.9995 34.5978 79.9023C34.3633 79.805 34.1629 79.6402 34.0221 79.429C33.8812 79.2182 33.8061 78.9699 33.8064 78.716Z" fill="#5463FF"/>
<path d="M51.2009 64.4706H33.8064V66.0782H49.5098L51.2009 64.4706Z" fill="#324293"/>
<path d="M54.7769 24.7601L31.0174 0.998321C30.3748 0.358938 29.5052 0 28.5987 0C27.6922 0 26.8226 0.358938 26.1801 0.998321L2.42087 24.7601C0.971013 26.3726 0.116716 28.4328 0 30.5981V34.7836C12.9805 44.4411 28.7345 49.6447 44.9134 49.6188C49.028 49.6195 53.1359 49.2851 57.1963 48.6188V30.5981C57.0783 28.4334 56.2249 26.3737 54.7769 24.7601Z" fill="#5463FF"/>
<path d="M44.9142 53.4672C28.7353 53.4928 12.9813 48.2892 0.000732422 38.632V61.2413C0.0036685 62.1478 0.364987 63.0159 1.00582 63.6566C1.64664 64.2977 2.51494 64.6588 3.4212 64.6618H53.7769C54.683 64.6588 55.5512 64.2973 56.1923 63.6566C56.8329 63.0156 57.1941 62.1474 57.197 61.2413V52.4672C53.1367 53.1335 49.0287 53.468 44.9142 53.4672Z" fill="#5463FF"/>
<path d="M93.416 29.536C93.6293 29.152 93.9387 28.896 94.344 28.768C94.7493 28.64 95.2507 28.576 95.848 28.576C96.4667 28.576 96.9573 28.6293 97.32 28.736C97.704 28.8427 97.9813 28.9707 98.152 29.12C98.344 29.2693 98.4827 29.4933 98.568 29.792C98.696 30.1333 98.76 30.6773 98.76 31.424V49.184C98.76 49.696 98.7387 50.0693 98.696 50.304C98.6747 50.5387 98.5787 50.816 98.408 51.136C98.1093 51.712 97.2773 52 95.912 52C95.08 52 94.504 51.936 94.184 51.808C93.864 51.68 93.5973 51.4773 93.384 51.2C88.584 44.8 85.4267 40.6187 83.912 38.656V49.184C83.912 49.696 83.8907 50.0693 83.848 50.304C83.8267 50.5387 83.7307 50.816 83.56 51.136C83.2613 51.712 82.4293 52 81.064 52C79.7413 52 78.9307 51.712 78.632 51.136C78.4613 50.816 78.3547 50.528 78.312 50.272C78.2907 50.016 78.28 49.6427 78.28 49.152V31.296C78.28 30.4853 78.376 29.8987 78.568 29.536C78.7813 29.152 79.0907 28.896 79.496 28.768C79.9013 28.64 80.424 28.576 81.064 28.576C81.704 28.576 82.2053 28.64 82.568 28.768C82.952 28.8747 83.2187 29.0027 83.368 29.152C83.4533 29.216 83.6987 29.4933 84.104 29.984C88.6053 36.1067 91.6133 40.1493 93.128 42.112V31.296C93.128 30.4853 93.224 29.8987 93.416 29.536ZM119.167 41.568C119.167 42.8693 118.837 43.84 118.175 44.48C117.535 45.0987 116.821 45.408 116.031 45.408H108.447C108.447 46.0053 108.799 46.5067 109.503 46.912C110.207 47.3173 110.911 47.52 111.615 47.52C112.853 47.52 113.823 47.392 114.527 47.136L114.879 47.008C115.391 46.7733 115.818 46.656 116.159 46.656C116.842 46.656 117.429 47.136 117.919 48.096C118.197 48.672 118.335 49.1627 118.335 49.568C118.335 51.4667 116.063 52.416 111.519 52.416C109.941 52.416 108.533 52.1493 107.295 51.616C106.079 51.0613 105.13 50.336 104.447 49.44C103.103 47.712 102.431 45.7813 102.431 43.648C102.431 40.96 103.295 38.816 105.023 37.216C106.773 35.5947 108.949 34.784 111.551 34.784C114.517 34.784 116.693 35.8293 118.079 37.92C118.805 39.0293 119.167 40.2453 119.167 41.568ZM112.415 42.496C113.226 42.496 113.631 42.1547 113.631 41.472C113.631 40.9813 113.439 40.5867 113.055 40.288C112.693 39.9893 112.159 39.84 111.455 39.84C110.773 39.84 110.09 40.128 109.407 40.704C108.725 41.2587 108.383 41.856 108.383 42.496H112.415ZM133.799 36.928C133.927 35.7333 134.77 35.136 136.327 35.136C137.159 35.136 137.778 35.2 138.183 35.328C138.588 35.456 138.866 35.68 139.015 36C139.186 36.32 139.282 36.608 139.303 36.864C139.346 37.0987 139.367 37.4613 139.367 37.952V49.152C139.367 49.6427 139.346 50.016 139.303 50.272C139.282 50.5067 139.196 50.784 139.047 51.104C138.748 51.6587 138.012 51.936 136.839 51.936C135.687 51.936 134.908 51.7973 134.503 51.52C134.119 51.2213 133.895 50.7947 133.831 50.24C133.042 51.3707 131.719 51.936 129.863 51.936C128.028 51.936 126.322 51.0933 124.743 49.408C123.164 47.7227 122.375 45.7707 122.375 43.552C122.375 41.312 123.164 39.36 124.743 37.696C126.343 36.0107 128.092 35.168 129.991 35.168C130.716 35.168 131.378 35.296 131.975 35.552C132.572 35.808 132.988 36.0533 133.223 36.288C133.458 36.5013 133.65 36.7147 133.799 36.928ZM127.975 43.584C127.975 44.288 128.252 44.928 128.807 45.504C129.362 46.0587 130.034 46.336 130.823 46.336C131.612 46.336 132.263 46.048 132.775 45.472C133.308 44.896 133.575 44.2667 133.575 43.584C133.575 42.88 133.319 42.2293 132.807 41.632C132.316 41.0347 131.644 40.736 130.791 40.736C129.959 40.736 129.276 41.0347 128.743 41.632C128.231 42.2293 127.975 42.88 127.975 43.584ZM154.974 35.328C155.379 35.456 155.71 35.68 155.966 36C156.243 36.2987 156.382 36.7893 156.382 37.472C156.382 38.1547 156.179 38.9013 155.774 39.712C155.368 40.5227 154.782 40.928 154.014 40.928C153.63 40.928 153.256 40.8427 152.894 40.672C152.552 40.5013 152.094 40.416 151.518 40.416C150.942 40.416 150.398 40.6187 149.886 41.024C149.395 41.4293 149.15 41.92 149.15 42.496V49.216C149.15 49.7067 149.128 50.08 149.086 50.336C149.064 50.5707 148.968 50.848 148.798 51.168C148.478 51.7227 147.646 52 146.302 52C145.278 52 144.542 51.8187 144.094 51.456C143.752 51.1573 143.56 50.6987 143.518 50.08C143.518 49.8667 143.518 49.5573 143.518 49.152V37.92C143.518 37.4293 143.528 37.0667 143.55 36.832C143.592 36.576 143.688 36.2987 143.838 36C144.136 35.424 144.968 35.136 146.334 35.136C147.614 35.136 148.414 35.3813 148.734 35.872C148.968 36.2133 149.086 36.5653 149.086 36.928C149.192 36.7787 149.342 36.5973 149.534 36.384C149.747 36.1707 150.184 35.8827 150.846 35.52C151.507 35.1573 152.083 34.976 152.574 34.976C153.086 34.976 153.512 35.008 153.854 35.072C154.195 35.1147 154.568 35.2 154.974 35.328ZM183.932 29.408C184.103 29.088 184.391 28.864 184.796 28.736C185.202 28.608 185.714 28.544 186.332 28.544C186.951 28.544 187.442 28.5973 187.804 28.704C188.167 28.8107 188.444 28.9387 188.636 29.088C188.828 29.2373 188.978 29.4507 189.084 29.728C189.191 30.0907 189.244 30.6453 189.244 31.392V49.152C189.244 49.6427 189.223 50.016 189.18 50.272C189.159 50.5067 189.063 50.784 188.892 51.104C188.594 51.68 187.762 51.968 186.396 51.968C184.903 51.968 184.028 51.5733 183.772 50.784C183.644 50.4213 183.58 49.8667 183.58 49.12V42.624H175.1V49.152C175.1 49.6427 175.079 50.016 175.036 50.272C175.015 50.5067 174.919 50.784 174.748 51.104C174.45 51.68 173.618 51.968 172.252 51.968C170.759 51.968 169.884 51.5733 169.628 50.784C169.5 50.4213 169.436 49.8667 169.436 49.12V31.36C169.436 30.8693 169.447 30.5067 169.468 30.272C169.511 30.016 169.618 29.728 169.788 29.408C170.087 28.832 170.919 28.544 172.284 28.544C173.778 28.544 174.663 28.9387 174.94 29.728C175.047 30.0907 175.1 30.6453 175.1 31.392V37.92H183.58V31.36C183.58 30.8693 183.591 30.5067 183.612 30.272C183.655 30.016 183.762 29.728 183.932 29.408ZM192.931 43.584C192.931 41.024 193.827 38.912 195.619 37.248C197.411 35.584 199.459 34.752 201.763 34.752C204.067 34.752 206.105 35.584 207.875 37.248C209.646 38.8907 210.531 40.992 210.531 43.552C210.531 45.3227 210.073 46.9013 209.155 48.288C208.238 49.6533 207.118 50.6667 205.795 51.328C204.494 51.968 203.139 52.288 201.731 52.288C200.323 52.288 198.958 51.9467 197.635 51.264C196.313 50.56 195.193 49.536 194.275 48.192C193.379 46.8267 192.931 45.2907 192.931 43.584ZM199.619 45.888C200.302 46.4 200.995 46.656 201.699 46.656C202.403 46.656 203.107 46.3893 203.811 45.856C204.515 45.3227 204.867 44.5333 204.867 43.488C204.867 42.4427 204.537 41.664 203.875 41.152C203.214 40.64 202.499 40.384 201.731 40.384C200.963 40.384 200.249 40.6507 199.587 41.184C198.926 41.7173 198.595 42.5067 198.595 43.552C198.595 44.576 198.937 45.3547 199.619 45.888ZM219.703 37.376C220.705 35.8613 221.911 35.104 223.319 35.104C225.495 35.104 227.116 36.032 228.183 37.888C228.417 37.568 228.695 37.2373 229.015 36.896C229.356 36.5333 229.889 36.1493 230.615 35.744C231.34 35.3173 232.087 35.104 232.855 35.104C234.561 35.104 235.991 35.7653 237.143 37.088C238.295 38.3893 238.871 40.5547 238.871 43.584V49.184C238.871 49.6747 238.849 50.048 238.807 50.304C238.785 50.5387 238.689 50.816 238.519 51.136C238.241 51.712 237.42 52 236.055 52C234.711 52 233.889 51.7013 233.591 51.104C233.441 50.784 233.345 50.5067 233.303 50.272C233.281 50.016 233.271 49.6427 233.271 49.152V43.552C233.271 41.696 232.609 40.768 231.287 40.768C230.54 40.768 230.028 41.0133 229.751 41.504C229.495 41.9947 229.367 42.688 229.367 43.584V49.184C229.367 49.696 229.345 50.0693 229.303 50.304C229.281 50.5387 229.185 50.816 229.015 51.136C228.716 51.712 227.884 52 226.519 52C225.175 52 224.353 51.7013 224.055 51.104C223.905 50.784 223.809 50.5067 223.767 50.272C223.745 50.016 223.735 49.6427 223.735 49.152V43.552C223.735 41.696 223.073 40.768 221.751 40.768C220.471 40.768 219.831 41.696 219.831 43.552V49.216C219.831 49.7067 219.809 50.08 219.767 50.336C219.745 50.5707 219.649 50.848 219.479 51.168C219.159 51.7227 218.327 52 216.983 52C215.639 52 214.817 51.712 214.519 51.136C214.369 50.816 214.273 50.5387 214.231 50.304C214.209 50.0693 214.199 49.696 214.199 49.184V37.92C214.199 37.4293 214.209 37.0667 214.231 36.832C214.273 36.576 214.38 36.2987 214.551 36C214.871 35.424 215.628 35.136 216.823 35.136C218.017 35.136 218.796 35.328 219.159 35.712C219.521 36.096 219.703 36.6507 219.703 37.376ZM259.274 41.568C259.274 42.8693 258.943 43.84 258.282 44.48C257.642 45.0987 256.927 45.408 256.138 45.408H248.554C248.554 46.0053 248.906 46.5067 249.61 46.912C250.314 47.3173 251.018 47.52 251.722 47.52C252.959 47.52 253.93 47.392 254.634 47.136L254.986 47.008C255.498 46.7733 255.924 46.656 256.266 46.656C256.948 46.656 257.535 47.136 258.026 48.096C258.303 48.672 258.442 49.1627 258.442 49.568C258.442 51.4667 256.17 52.416 251.626 52.416C250.047 52.416 248.639 52.1493 247.402 51.616C246.186 51.0613 245.236 50.336 244.554 49.44C243.21 47.712 242.538 45.7813 242.538 43.648C242.538 40.96 243.402 38.816 245.13 37.216C246.879 35.5947 249.055 34.784 251.658 34.784C254.623 34.784 256.799 35.8293 258.186 37.92C258.911 39.0293 259.274 40.2453 259.274 41.568ZM252.522 42.496C253.332 42.496 253.738 42.1547 253.738 41.472C253.738 40.9813 253.546 40.5867 253.162 40.288C252.799 39.9893 252.266 39.84 251.562 39.84C250.879 39.84 250.196 40.128 249.514 40.704C248.831 41.2587 248.49 41.856 248.49 42.496H252.522Z" fill="#5463FF"/>
</svg>
